HIERARCHY
ROOT hip
{
	OFFSET 0.000000 0.000000 0.000000 
	CHANNELS 6 Xposition Yposition Zposition Xrotation Zrotation Yrotation
	JOINT abdomen
	{
		OFFSET 0.000000 3.402643 0.000000 
		CHANNELS 3 Xrotation Zrotation Yrotation
		JOINT chest
		{
			OFFSET 0.000000 8.438565 -0.680529 
			CHANNELS 3 Xrotation Zrotation Yrotation
			JOINT neck
			{
				OFFSET 0.000000 10.207942 -0.272212 
				CHANNELS 3 Xrotation Zrotation Yrotation
				JOINT head
				{
					OFFSET 0.000000 3.130431 0.000000 
					CHANNELS 3 Xrotation Zrotation Yrotation
					End Site
					{
						OFFSET 0.000000 3.130435 0.000000 
					}
				}
			}
			JOINT lCollar
			{
				OFFSET 3.470700 6.669187 -0.816635 
				CHANNELS 3 Yrotation Zrotation Xrotation
				JOINT lShldr
				{
					OFFSET 3.198488 0.000000 0.000000 
					CHANNELS 3 Zrotation Yrotation Xrotation
					JOINT lForeArm
					{
						OFFSET 10.139888 0.000000 0.000000 
						CHANNELS 3 Yrotation Zrotation Xrotation
						JOINT lHand
						{
							OFFSET 8.370511 0.000000 0.000000 
							CHANNELS 3 Zrotation Yrotation Xrotation
							End Site
							{
								OFFSET 4.083176 0.000000 0.000000 
							}
						}
					}
				}
			}
			JOINT rCollar
			{
				OFFSET -3.470700 6.669187 -0.816635 
				CHANNELS 3 Yrotation Zrotation Xrotation
				JOINT rShldr
				{
					OFFSET -3.198488 0.000000 0.000000 
					CHANNELS 3 Zrotation Yrotation Xrotation
					JOINT rForeArm
					{
						OFFSET -10.139888 0.000000 0.000000 
						CHANNELS 3 Yrotation Zrotation Xrotation
						JOINT rHand
						{
							OFFSET -8.370511 0.000000 0.000000 
							CHANNELS 3 Zrotation Yrotation Xrotation
							End Site
							{
								OFFSET -4.083176 0.000000 0.000000 
							}
						}
					}
				}
			}
		}
	}
	JOINT lThigh
	{
		OFFSET 5.308129 -1.633274 1.361059 
		CHANNELS 3 Xrotation Zrotation Yrotation
		JOINT lShin
		{
			OFFSET -2.041588 -20.007561 0.000000 
			CHANNELS 3 Xrotation Zrotation Yrotation
			JOINT lFoot
			{
				OFFSET 0.000000 -19.190928 -1.224953 
				CHANNELS 3 Xrotation Yrotation Zrotation
				End Site
				{
					OFFSET 0.000000 -2.449906 4.627600 
				}
			}
		}
	}
	JOINT rThigh
	{
		OFFSET -5.308129 -1.633274 1.361059 
		CHANNELS 3 Xrotation Zrotation Yrotation
		JOINT rShin
		{
			OFFSET 2.041588 -20.007561 0.000000 
			CHANNELS 3 Xrotation Zrotation Yrotation
			JOINT rFoot
			{
				OFFSET 0.000000 -19.190928 -1.224953 
				CHANNELS 3 Xrotation Yrotation Zrotation
				End Site
				{
					OFFSET 0.000000 -2.449906 4.627600 
				}
			}
		}
	}
}
MOTION
Frames: 11
Frame Time: 0.033333
38.270206 41.497372 -216.608719 -1.133311 1.698887 -1.498433 33.007599 1.350043 -4.894825 -20.839844 0.000000 0.000000 -40.099586 0.891782 2.667155 8.603516 0.000000 0.000000 -4.754609 -0.109183 -0.002653 -60.950096 14.545380 -0.300111 -60.311180 -24.945032 15.949162 15.982723 -16.240181 0.151565 4.754609 0.109183 -0.002672 85.722694 -47.767452 -27.238176 60.002045 12.520277 16.461683 -7.849649 -2.433192 13.283348 13.001563 21.283167 10.488596 53.630440 2.452785 -0.459049 9.939123 8.177999 -2.102610 -26.481190 -14.773649 -2.454648 70.372704 -1.279215 0.723035 -29.373665 -8.997991 9.967806 
36.311863 40.501957 -214.301086 -1.708996 -0.214748 -6.341249 33.985310 1.183931 -0.864684 -20.839844 0.000000 0.000000 -41.387207 1.287449 4.839761 8.603516 0.000000 0.000000 -4.754609 -0.109183 -0.002653 -65.494850 19.032740 0.204681 -38.394764 -19.106657 24.430017 13.195086 -17.474335 -1.568860 4.754609 0.109183 -0.002672 87.237976 -39.760048 -22.472422 62.412636 11.760996 15.972107 -6.437552 -0.397864 14.062832 4.003240 17.820934 4.303782 68.215340 6.354502 2.183966 4.321324 12.487506 -2.066172 -22.811523 -9.765245 -1.835557 72.287010 -0.224844 -0.157610 -37.260895 -9.490579 6.960952 
34.583897 39.678951 -212.198837 -1.758705 -1.825312 -10.344383 35.153309 0.666129 3.570763 -20.839844 0.000000 0.000000 -43.171627 1.454717 5.757233 8.603516 0.000000 0.000000 -4.754609 -0.109183 -0.002653 -70.318283 22.497849 -0.900044 -18.694868 -12.880681 30.297421 10.644650 -16.981104 0.732364 4.754609 0.109183 -0.002672 87.647324 -30.698330 -16.697386 66.926468 11.677421 15.694503 -4.796476 0.950865 15.412357 -8.446478 14.208205 -0.527334 82.094833 9.063447 5.324249 -2.914813 15.218611 -1.696240 -19.288813 -4.383254 0.101882 72.950584 -0.185985 -1.107236 -43.188091 -10.215325 4.258793 
33.117771 39.181263 -209.864746 -1.866969 -2.469393 -12.126638 35.776272 -0.379021 6.868782 -20.839844 0.000000 0.000000 -43.589798 1.184913 5.112555 8.603516 0.000000 0.000000 -4.754609 -0.109183 -0.002653 -72.530121 27.412819 -3.702527 -6.144433 -10.751589 34.274746 9.417064 -15.987753 5.748612 4.754609 0.109183 -0.002672 86.359695 -21.961666 -10.744889 72.931961 12.890215 14.706316 -4.472349 1.938635 15.497694 -22.710155 11.286925 -3.018347 90.846161 9.560319 6.500431 -11.303626 15.279234 -1.917504 -14.295402 -2.079886 0.771042 71.863457 0.400918 -1.415180 -47.336567 -10.057188 2.820591 
31.813051 39.149273 -206.838028 -2.501600 -2.048828 -11.189861 35.639717 -2.273600 9.117649 -20.839844 0.000000 0.000000 -42.866863 -0.253744 2.261620 8.603516 0.000000 0.000000 -4.754609 -0.109183 -0.002653 -70.040169 34.593967 -5.753759 -2.622231 -13.179481 38.362385 9.994865 -15.911730 8.368320 4.754609 0.109183 -0.002672 84.137894 -15.547389 -6.527691 80.259583 14.539234 12.543142 -6.621869 3.341248 14.263083 -35.246761 8.162580 -3.272185 92.066139 7.616621 4.725200 -18.395653 13.213054 -3.775102 -6.665661 -2.605778 -0.097837 67.967033 1.748643 -1.215732 -48.283627 -9.652149 3.824843 
30.536303 39.613995 -203.084259 -3.789397 -0.760054 -8.103961 35.130257 -4.973818 10.871545 -20.839844 0.000000 0.000000 -41.746807 -2.919713 -2.349681 8.603516 0.000000 0.000000 -4.754609 -0.109183 -0.002653 -63.657143 40.837101 -3.900532 -3.695300 -17.203123 41.948112 10.604782 -15.902241 4.874281 4.754609 0.109183 -0.002672 81.256035 -13.251013 -4.927999 88.578293 16.054285 9.873520 -10.610383 4.405054 13.057206 -42.685307 5.057108 -1.157334 86.671791 2.870725 0.775859 -23.203243 9.410733 -7.837403 3.216749 -3.118962 -1.193682 60.969704 3.066288 -2.120833 -43.150333 -10.384693 6.103248 
29.252071 40.300083 -198.885742 -5.371346 0.554197 -4.397807 34.783600 -7.573482 11.782437 -20.839844 0.000000 0.000000 -40.536098 -5.368975 -7.025582 8.603516 0.000000 0.000000 -4.754609 -0.109183 -0.002653 -57.354321 45.192394 0.311523 -8.213264 -19.172501 43.496998 11.683050 -15.311920 -2.158358 4.754609 0.109183 -0.002672 78.753128 -14.141250 -4.714389 95.257065 17.396959 8.608177 -13.832397 5.492898 13.766026 -43.804276 3.857244 2.865441 77.702454 -4.206725 -3.167053 -24.794937 3.761480 -12.729764 13.130288 -2.528898 -2.476431 53.465710 4.364507 -4.439958 -31.198921 -10.328815 7.280849 
28.042299 40.804279 -194.462387 -6.875405 0.620506 -1.998641 34.685406 -8.622690 12.077211 -20.839844 0.000000 0.000000 -39.666805 -6.428628 -9.612824 8.603516 0.000000 0.000000 -4.754609 -0.109183 -0.002653 -54.659599 47.734192 1.940680 -13.592263 -19.102375 41.413555 12.763055 -14.985913 -7.138676 4.754609 0.109183 -0.002672 78.521942 -16.178940 -4.892326 96.791306 18.473415 10.379672 -13.565922 7.483469 17.024561 -39.677490 4.345853 7.028127 69.113831 -10.584545 -4.049169 -23.105686 -1.420902 -13.389849 20.381966 -1.298627 -2.862860 49.697590 6.359342 -6.332651 -18.821758 -9.555425 6.864666 
26.979433 40.884739 -189.964554 -8.672074 -0.386159 -1.884463 35.112549 -7.836114 12.235320 -20.839844 0.000000 0.000000 -39.243397 -6.093710 -9.040403 8.603516 0.000000 0.000000 -4.754609 -0.109183 -0.002653 -56.586060 47.994923 1.089862 -18.294388 -18.682178 37.127110 12.888050 -14.914813 -10.686972 4.754609 0.109183 -0.002672 79.872292 -19.205215 -5.373381 93.745148 19.813492 12.900397 -10.657692 8.377686 19.632504 -33.298954 4.892083 9.247211 65.555679 -13.411812 -2.520439 -22.570131 -3.793979 -4.781748 24.066088 -1.757708 -3.291332 52.097767 7.774279 -6.373446 -11.927053 -9.426128 6.623397 
26.055988 40.664867 -185.583145 -10.519554 -1.104176 -3.564546 36.031170 -6.692294 11.782749 -20.839844 0.000000 0.000000 -39.077518 -4.867940 -6.305720 8.603516 0.000000 0.000000 -4.754609 -0.109183 -0.002653 -61.799442 45.161171 -1.033447 -22.323143 -18.796787 32.534546 12.633171 -15.453362 -11.638155 4.754609 0.109183 -0.002672 80.798370 -22.892694 -5.874883 86.983528 21.874502 14.804208 -8.730384 6.464761 19.052641 -27.198362 3.327758 8.290213 67.099617 -12.533192 -0.051543 -27.166954 -1.910446 5.708260 23.094439 -4.921722 -4.960775 59.764668 6.297660 -4.808152 -9.615850 -9.912605 6.601366 
25.292940 40.594402 -181.556046 -11.641842 -0.822569 -5.680158 36.873360 -6.006462 9.982141 -20.839844 0.000000 0.000000 -39.669788 -3.339443 -3.056846 8.603516 0.000000 0.000000 -4.754609 -0.109183 -0.002653 -67.026520 38.502960 -2.152439 -27.009579 -19.171829 28.254732 11.807318 -16.516867 -10.009331 4.754609 0.109183 -0.002672 82.482399 -26.561691 -7.657517 76.993835 21.676636 17.875265 -7.819569 3.689437 18.360172 -21.478510 -0.644983 5.313473 68.335724 -10.464811 2.769381 -32.782021 2.298761 9.526580 16.034309 -9.043397 -5.431212 69.190132 2.150291 -3.087227 -9.924121 -10.668306 5.422263 
